<svg width="78" height="64" viewBox="0 0 78 64" fill="none" xmlns="http://www.w3.org/2000/svg">
<g clip-path="url(#clip0_6188_62223)">
<path d="M19.8618 55.6214V52.5083C19.88 52.2465 19.8422 51.9837 19.751 51.7376C19.6597 51.4916 19.517 51.2678 19.3323 51.0812C19.1477 50.8946 18.9255 50.7496 18.6804 50.6557C18.4353 50.5618 18.173 50.5212 17.911 50.5367C17.568 50.5144 17.2254 50.5844 16.9188 50.7395C16.6122 50.8947 16.3528 51.1292 16.1676 51.4187C15.9989 51.1379 15.7576 50.9077 15.469 50.7525C15.1805 50.5973 14.8554 50.5227 14.5281 50.5367C14.2428 50.5224 13.9586 50.5828 13.7038 50.712C13.449 50.8413 13.2324 51.0348 13.0753 51.2735V50.6613H11.9961V55.6214H13.0857V52.8715C13.0621 52.7018 13.0764 52.529 13.1276 52.3655C13.1787 52.202 13.2655 52.0519 13.3815 51.9259C13.4976 51.7999 13.6401 51.7012 13.7989 51.6368C13.9577 51.5724 14.1287 51.544 14.2998 51.5536C15.0158 51.5536 15.379 52.0206 15.379 52.8611V55.6214H16.4686V52.8715C16.4468 52.7021 16.4623 52.53 16.5142 52.3673C16.566 52.2046 16.6528 52.0552 16.7685 51.9296C16.8842 51.804 17.026 51.7053 17.1839 51.6403C17.3419 51.5754 17.5121 51.5458 17.6827 51.5536C18.4194 51.5536 18.7722 52.0206 18.7722 52.8611V55.6214H19.8618ZM35.9874 50.6613H34.2234V49.1566H33.1338V50.6613H32.1272V51.647H33.1338V53.9092C33.1338 55.061 33.58 55.7459 34.8563 55.7459C35.3332 55.7474 35.8007 55.6143 36.2053 55.362L35.8941 54.4384C35.6047 54.6111 35.2762 54.7075 34.9394 54.7186C34.3998 54.7186 34.2234 54.3864 34.2234 53.8885V51.647H35.9874V50.6613ZM45.1917 50.5367C44.9286 50.529 44.6682 50.5923 44.4381 50.7202C44.208 50.848 44.0167 51.0356 43.8843 51.2631V50.6613H42.8154V55.6214H43.8946V52.8403C43.8946 52.0206 44.2474 51.564 44.9531 51.564C45.1839 51.5609 45.4131 51.6032 45.6275 51.6886L45.9596 50.6716C45.7131 50.5834 45.4535 50.5378 45.1917 50.5367ZM31.2764 51.0555C30.6655 50.6923 29.9631 50.5122 29.2529 50.5367C27.9972 50.5367 27.1879 51.1386 27.1879 52.1243C27.1879 52.9338 27.7897 53.4319 28.9 53.5875L29.4085 53.6601C29.9999 53.743 30.2801 53.8988 30.2801 54.1789C30.2801 54.5629 29.8858 54.7809 29.1491 54.7809C28.5564 54.7979 27.9753 54.6151 27.4991 54.262L26.9907 55.1025C27.6193 55.5415 28.3723 55.7671 29.1387 55.7459C30.5707 55.7459 31.4008 55.0714 31.4008 54.1271C31.4008 53.2554 30.7471 52.7988 29.6679 52.6431L29.1595 52.5705C28.6925 52.5083 28.319 52.415 28.319 52.0829C28.319 51.7197 28.6717 51.5018 29.2632 51.5018C29.8064 51.51 30.3385 51.6564 30.8094 51.9272L31.2764 51.0555ZM60.1863 50.5367C59.9231 50.529 59.6628 50.5923 59.4327 50.7202C59.2026 50.848 59.0112 51.0356 58.8788 51.2631V50.6613H57.81V55.6214H58.8891V52.8403C58.8891 52.0206 59.242 51.564 59.9475 51.564C60.1784 51.5608 60.4076 51.6032 60.6221 51.6886L60.9542 50.6716C60.7077 50.5834 60.448 50.5378 60.1863 50.5367ZM46.2812 53.1412C46.2669 53.4906 46.3259 53.8392 46.4543 54.1645C46.5828 54.4898 46.7779 54.7846 47.0272 55.0299C47.2764 55.2753 47.5742 55.4657 47.9015 55.589C48.2288 55.7123 48.5782 55.7658 48.9274 55.7459C49.5753 55.7785 50.212 55.5675 50.7122 55.1544L50.1934 54.2827C49.8203 54.5671 49.3654 54.7236 48.8962 54.7289C48.4918 54.7044 48.112 54.5264 47.8343 54.2314C47.5567 53.9363 47.402 53.5464 47.402 53.1413C47.402 52.7361 47.5567 52.3462 47.8343 52.0512C48.112 51.7561 48.4918 51.5782 48.8962 51.5536C49.3654 51.559 49.8203 51.7155 50.1934 51.9999L50.7122 51.1282C50.2119 50.7152 49.5753 50.5042 48.9274 50.5367C48.5783 50.5169 48.2288 50.5703 47.9016 50.6936C47.5743 50.8169 47.2765 51.0073 47.0272 51.2527C46.778 51.498 46.5829 51.7927 46.4544 52.118C46.3259 52.4432 46.2669 52.7918 46.2812 53.1412ZM56.3883 53.1412V50.6613H55.3091V51.2631C55.1249 51.0257 54.8865 50.8359 54.6139 50.7095C54.3413 50.5832 54.0424 50.5239 53.7422 50.5367C53.0735 50.5695 52.443 50.8582 51.9814 51.3431C51.5197 51.828 51.2622 52.4718 51.2622 53.1413C51.2622 53.8108 51.5197 54.4547 51.9814 54.9396C52.443 55.4244 53.0735 55.7132 53.7422 55.7459C54.0424 55.7588 54.3413 55.6995 54.614 55.5731C54.8866 55.4467 55.1249 55.2569 55.3091 55.0195V55.6214H56.3883V53.1412ZM52.3724 53.1412C52.3892 52.8485 52.4912 52.5671 52.666 52.3317C52.8408 52.0963 53.0806 51.9172 53.3559 51.8165C53.6312 51.7158 53.93 51.6978 54.2154 51.7649C54.5008 51.8319 54.7604 51.9811 54.962 52.1938C55.1637 52.4066 55.2987 52.6738 55.3504 52.9624C55.402 53.251 55.3681 53.5484 55.2527 53.8179C55.1374 54.0874 54.9457 54.3173 54.7013 54.4792C54.4568 54.6411 54.1704 54.7279 53.8772 54.7289C53.6717 54.7317 53.4678 54.6919 53.2785 54.612C53.0892 54.5321 52.9184 54.4138 52.7771 54.2646C52.6357 54.1155 52.5268 53.9387 52.4571 53.7453C52.3875 53.5519 52.3587 53.3463 52.3724 53.1412ZM39.3496 50.5367C38.6766 50.5722 38.0434 50.8668 37.583 51.359C37.1226 51.8511 36.8707 52.5024 36.8801 53.1763C36.8895 53.8501 37.1595 54.4942 37.6334 54.9733C38.1074 55.4524 38.7485 55.7293 39.4222 55.7459C40.1626 55.7719 40.8866 55.5244 41.4561 55.0506L40.9268 54.2516C40.517 54.58 40.0095 54.7626 39.4844 54.7704C39.1278 54.8004 38.7736 54.6905 38.4966 54.4639C38.2196 54.2373 38.0417 53.9118 38.0005 53.5563H41.6844C41.6947 53.4215 41.7051 53.2866 41.7051 53.1412C41.6948 51.5952 40.7401 50.5367 39.3496 50.5367ZM39.3288 51.5018C39.6547 51.4954 39.9699 51.6185 40.2053 51.8442C40.4406 52.0698 40.577 52.3795 40.5844 52.7055H38.0109C38.0299 52.3725 38.1783 52.0601 38.4246 51.8351C38.6709 51.6102 38.9954 51.4905 39.3288 51.5018ZM66.402 53.1412V48.6689H65.3228V51.2631C65.1386 51.0257 64.9002 50.8359 64.6276 50.7095C64.355 50.5832 64.0561 50.5239 63.7559 50.5367C63.0872 50.5695 62.4567 50.8582 61.995 51.3431C61.5333 51.8279 61.2758 52.4718 61.2758 53.1413C61.2758 53.8109 61.5333 54.4547 61.995 54.9396C62.4567 55.4245 63.0872 55.7132 63.7559 55.7459C64.0561 55.7587 64.355 55.6995 64.6276 55.5731C64.9002 55.4467 65.1386 55.2569 65.3228 55.0195V55.6214H66.402V53.1412ZM68.201 54.9025C68.268 54.9021 68.3344 54.9153 68.3962 54.9413C68.4556 54.966 68.5097 55.0019 68.5557 55.047C68.6013 55.0919 68.6378 55.1453 68.6632 55.2041C68.6891 55.2645 68.7025 55.3295 68.7025 55.3953C68.7025 55.461 68.6891 55.5261 68.6632 55.5865C68.6377 55.6451 68.6012 55.6982 68.5557 55.743C68.5096 55.788 68.4555 55.8241 68.3962 55.8493C68.3345 55.8757 68.2681 55.8891 68.201 55.8886C68.1022 55.8896 68.0054 55.8615 67.9226 55.8078C67.8397 55.754 67.7746 55.6771 67.7352 55.5865C67.7093 55.5261 67.696 55.461 67.696 55.3953C67.696 55.3295 67.7093 55.2645 67.7352 55.2041C67.7605 55.1453 67.7968 55.092 67.8422 55.047C67.8881 55.0016 67.9425 54.9657 68.0023 54.9413C68.0653 54.9152 68.1328 54.902 68.201 54.9025ZM68.201 55.7798C68.2521 55.7802 68.3028 55.7699 68.3497 55.7496C68.3948 55.7301 68.4357 55.7022 68.4705 55.6674C68.5421 55.5951 68.5823 55.4974 68.5823 55.3955C68.5823 55.2937 68.5421 55.196 68.4705 55.1236C68.4358 55.089 68.3948 55.0613 68.3497 55.0421C68.3027 55.0222 68.2521 55.0121 68.201 55.0125C68.149 55.0121 68.0974 55.0222 68.0494 55.0421C68.0035 55.061 67.9619 55.0887 67.9267 55.1236C67.8551 55.196 67.8148 55.2937 67.8148 55.3955C67.8148 55.4974 67.8551 55.5951 67.9267 55.6674C67.962 55.7025 68.0036 55.7304 68.0494 55.7496C68.0973 55.7699 68.1489 55.7802 68.201 55.7798ZM68.23 55.1647C68.2785 55.1616 68.3266 55.1755 68.366 55.2041C68.3817 55.217 68.3941 55.2333 68.4024 55.2519C68.4107 55.2705 68.4146 55.2907 68.4137 55.311C68.4142 55.3284 68.4111 55.3457 68.4046 55.3618C68.398 55.3779 68.3882 55.3925 68.3756 55.4046C68.3456 55.4312 68.3075 55.4472 68.2675 55.4499L68.4173 55.6227H68.3001L68.1612 55.4511H68.1165V55.6227H68.0186V55.1647H68.23ZM68.1165 55.2506V55.3726H68.2288C68.2504 55.3737 68.2719 55.3684 68.2905 55.3574C68.2981 55.3524 68.3041 55.3454 68.3082 55.3373C68.3122 55.3291 68.314 55.3201 68.3134 55.311C68.3139 55.3021 68.312 55.2932 68.308 55.2852C68.304 55.2773 68.298 55.2705 68.2905 55.2656C68.2718 55.2547 68.2504 55.2495 68.2288 55.2506H68.1165ZM62.3862 53.1412C62.4029 52.8485 62.505 52.5672 62.6798 52.3318C62.8545 52.0964 63.0944 51.9173 63.3697 51.8166C63.645 51.7159 63.9438 51.698 64.2292 51.7651C64.5145 51.8321 64.7741 51.9812 64.9757 52.194C65.1774 52.4068 65.3123 52.674 65.364 52.9625C65.4156 53.2511 65.3816 53.5485 65.2663 53.818C65.1509 54.0875 64.9592 54.3174 64.7148 54.4793C64.4704 54.6411 64.1839 54.7279 63.8908 54.7289C63.6853 54.7317 63.4815 54.6919 63.2921 54.612C63.1028 54.532 62.9321 54.4138 62.7907 54.2646C62.6494 54.1154 62.5405 53.9386 62.4708 53.7453C62.4012 53.5519 62.3724 53.3462 62.3862 53.1412ZM25.9426 53.1412V50.6613H24.8634V51.2631C24.6792 51.0257 24.4408 50.8359 24.1682 50.7095C23.8956 50.5832 23.5967 50.5239 23.2965 50.5367C22.6278 50.5695 21.9973 50.8582 21.5356 51.3431C21.074 51.828 20.8165 52.4718 20.8165 53.1413C20.8165 53.8108 21.074 54.4547 21.5356 54.9396C21.9973 55.4244 22.6278 55.7132 23.2965 55.7459C23.5967 55.7588 23.8956 55.6995 24.1682 55.5731C24.4408 55.4467 24.6792 55.2569 24.8634 55.0195V55.6214H25.9426V53.1412ZM21.9268 53.1412C21.9436 52.8485 22.0456 52.5672 22.2204 52.3318C22.3952 52.0964 22.635 51.9173 22.9103 51.8166C23.1856 51.7159 23.4844 51.698 23.7698 51.7651C24.0552 51.8321 24.3147 51.9812 24.5164 52.194C24.718 52.4068 24.853 52.674 24.9046 52.9626C24.9562 53.2511 24.9223 53.5485 24.8069 53.818C24.6916 54.0875 24.4999 54.3174 24.2554 54.4793C24.011 54.6411 23.7246 54.7279 23.4314 54.7289C23.2259 54.7317 23.0221 54.6919 22.8328 54.612C22.6434 54.532 22.4727 54.4138 22.3314 54.2646C22.19 54.1154 22.0811 53.9386 22.0115 53.7453C21.9418 53.5519 21.913 53.3462 21.9268 53.1412Z" fill="#231F20"/>
<path d="M47.2618 12.8623H30.916V42.2362H47.2618V12.8623Z" fill="#FF5F00"/>
<path d="M31.9554 27.5481C31.9528 24.7192 32.5939 21.9268 33.83 19.3822C35.0662 16.8377 36.865 14.6077 39.0904 12.8612C36.3346 10.695 33.0249 9.34795 29.5397 8.97388C26.0545 8.59981 22.5344 9.21385 19.3816 10.7458C16.2289 12.2778 13.5708 14.6659 11.7111 17.6371C9.85143 20.6083 8.86523 24.0429 8.86523 27.5481C8.86523 31.0533 9.85143 34.4879 11.7111 37.4591C13.5708 40.4303 16.2289 42.8184 19.3816 44.3504C22.5344 45.8824 26.0545 46.4964 29.5397 46.1223C33.0249 45.7483 36.3346 44.4012 39.0904 42.235C36.8651 40.4885 35.0662 38.2585 33.8301 35.714C32.5939 33.1694 31.9528 30.377 31.9554 27.5481Z" fill="#EB001B"/>
<path d="M69.3141 27.5481C69.3142 31.0533 68.3281 34.4878 66.4686 37.459C64.609 40.4303 61.951 42.8184 58.7983 44.3504C55.6456 45.8823 52.1255 46.4964 48.6404 46.1223C45.1552 45.7483 41.8456 44.4012 39.0898 42.235C41.3133 40.4867 43.1107 38.2564 44.3467 35.7122C45.5826 33.1681 46.2248 30.3766 46.2248 27.5481C46.2248 24.7196 45.5826 21.9281 44.3467 19.384C43.1107 16.8398 41.3133 14.6095 39.0898 12.8612C41.8456 10.695 45.1552 9.34794 48.6404 8.97387C52.1255 8.59981 55.6456 9.21386 58.7983 10.7458C61.951 12.2778 64.609 14.6659 66.4686 17.6372C68.3281 20.6084 69.3142 24.0429 69.3141 27.5481Z" fill="#F79E1B"/>
<path d="M67.5313 39.1235V38.5221H67.7738V38.3996H67.1562V38.5221H67.3988V39.1235H67.5313ZM68.7303 39.1235V38.3984H68.541L68.3232 38.8972L68.1054 38.3984H67.916V39.1235H68.0497V38.5766L68.2539 39.0481H68.3925L68.5967 38.5754V39.1235H68.7303Z" fill="#F79E1B"/>
</g>
<defs>
<clipPath id="clip0_6188_62223">
<rect width="76.1778" height="62.4851" fill="white" transform="translate(1 1)"/>
</clipPath>
</defs>
</svg>
